<svg xmlns="http://www.w3.org/2000/svg" viewBox="0 0 1200 800" role="img" aria-label="Tailscale">
  <defs>
    <linearGradient id="bg" x1="0" y1="0" x2="1" y2="1">
      <stop offset="0" stop-color="#050505"/>
      <stop offset="1" stop-color="#111111"/>
    </linearGradient>
    <radialGradient id="glow" cx="50%" cy="20%" r="70%">
      <stop offset="0" stop-color="#ffffff" stop-opacity="0.14"/>
      <stop offset="1" stop-color="#ffffff" stop-opacity="0"/>
    </radialGradient>
  </defs>
  <rect width="1200" height="800" fill="url(#bg)"/>
  <rect width="1200" height="800" fill="url(#glow)"/>
  <rect x="60" y="60" width="1080" height="680" rx="36" fill="rgba(255,255,255,0.03)" stroke="rgba(255,255,255,0.10)"/>
  <text x="72" y="112" fill="#fff" font-size="44" font-family="Inter, Arial, sans-serif" font-weight="800" letter-spacing="-1.8">Tailscale</text>
  <text x="72" y="144" fill="#d4d4d4" font-size="18" font-family="Inter, Arial, sans-serif" letter-spacing="3">Secure remote access</text>
  
            <g transform="translate(72,210)">
              <rect width="290" height="140" rx="24" fill="rgba(255,255,255,0.04)" stroke="rgba(255,255,255,0.11)"/>
              <rect x="18" y="18" width="78" height="10" rx="5" fill="#ffffff" opacity="0.9"/>
              <text x="18" y="52" fill="#fff" font-size="22" font-family="Inter, Arial, sans-serif" font-weight="700">VPN</text>
              <text x="18" y="78" fill="#bdbdbd" font-size="12" font-family="Inter, Arial, sans-serif" letter-spacing="2">Zero-trust</text>
              <rect x="18" y="92" width="186" height="10" rx="5" fill="rgba(255,255,255,0.08)"/>
              <rect x="18" y="92" width="132" height="10" rx="5" fill="#ffffff" opacity="0.85"/>
            </g>

            <g transform="translate(430,210)">
              <rect width="290" height="140" rx="24" fill="rgba(255,255,255,0.04)" stroke="rgba(255,255,255,0.11)"/>
              <rect x="18" y="18" width="78" height="10" rx="5" fill="#d0d0d0" opacity="0.9"/>
              <text x="18" y="52" fill="#fff" font-size="22" font-family="Inter, Arial, sans-serif" font-weight="700">Devices</text>
              <text x="18" y="78" fill="#bdbdbd" font-size="12" font-family="Inter, Arial, sans-serif" letter-spacing="2">Mesh access</text>
              <rect x="18" y="92" width="186" height="10" rx="5" fill="rgba(255,255,255,0.08)"/>
              <rect x="18" y="92" width="132" height="10" rx="5" fill="#d0d0d0" opacity="0.85"/>
            </g>

            <g transform="translate(788,210)">
              <rect width="290" height="140" rx="24" fill="rgba(255,255,255,0.04)" stroke="rgba(255,255,255,0.11)"/>
              <rect x="18" y="18" width="78" height="10" rx="5" fill="#ffffff" opacity="0.9"/>
              <text x="18" y="52" fill="#fff" font-size="22" font-family="Inter, Arial, sans-serif" font-weight="700">Ports</text>
              <text x="18" y="78" fill="#bdbdbd" font-size="12" font-family="Inter, Arial, sans-serif" letter-spacing="2">Private only</text>
              <rect x="18" y="92" width="186" height="10" rx="5" fill="rgba(255,255,255,0.08)"/>
              <rect x="18" y="92" width="132" height="10" rx="5" fill="#ffffff" opacity="0.85"/>
            </g>

            <g transform="translate(72,420)">
              <rect width="290" height="140" rx="24" fill="rgba(255,255,255,0.04)" stroke="rgba(255,255,255,0.11)"/>
              <rect x="18" y="18" width="78" height="10" rx="5" fill="#d0d0d0" opacity="0.9"/>
              <text x="18" y="52" fill="#fff" font-size="22" font-family="Inter, Arial, sans-serif" font-weight="700">Routing</text>
              <text x="18" y="78" fill="#bdbdbd" font-size="12" font-family="Inter, Arial, sans-serif" letter-spacing="2">Selective exposure</text>
              <rect x="18" y="92" width="186" height="10" rx="5" fill="rgba(255,255,255,0.08)"/>
              <rect x="18" y="92" width="132" height="10" rx="5" fill="#d0d0d0" opacity="0.85"/>
            </g>

            <g transform="translate(430,420)">
              <rect width="290" height="140" rx="24" fill="rgba(255,255,255,0.04)" stroke="rgba(255,255,255,0.11)"/>
              <rect x="18" y="18" width="78" height="10" rx="5" fill="#ffffff" opacity="0.9"/>
              <text x="18" y="52" fill="#fff" font-size="22" font-family="Inter, Arial, sans-serif" font-weight="700">Ops</text>
              <text x="18" y="78" fill="#bdbdbd" font-size="12" font-family="Inter, Arial, sans-serif" letter-spacing="2">Remote support</text>
              <rect x="18" y="92" width="186" height="10" rx="5" fill="rgba(255,255,255,0.08)"/>
              <rect x="18" y="92" width="132" height="10" rx="5" fill="#ffffff" opacity="0.85"/>
            </g>

            <g transform="translate(788,420)">
              <rect width="290" height="140" rx="24" fill="rgba(255,255,255,0.04)" stroke="rgba(255,255,255,0.11)"/>
              <rect x="18" y="18" width="78" height="10" rx="5" fill="#d0d0d0" opacity="0.9"/>
              <text x="18" y="52" fill="#fff" font-size="22" font-family="Inter, Arial, sans-serif" font-weight="700">Safety</text>
              <text x="18" y="78" fill="#bdbdbd" font-size="12" font-family="Inter, Arial, sans-serif" letter-spacing="2">No public leak</text>
              <rect x="18" y="92" width="186" height="10" rx="5" fill="rgba(255,255,255,0.08)"/>
              <rect x="18" y="92" width="132" height="10" rx="5" fill="#d0d0d0" opacity="0.85"/>
            </g>
  <g opacity="0.7">
    <rect x="72" y="620" width="1056" height="1.2" fill="rgba(255,255,255,0.12)"/>
    <text x="72" y="660" fill="#a3a3a3" font-size="15" font-family="Inter, Arial, sans-serif">Premium monochrome showcase preview</text>
  </g>
</svg>